Coordinates
version=1
nRows=6
nColumns=63
inDegrees=yes

Units are S.I. units (second, meters, Newtons, ...)
If the header above contains a line with 'inDegrees', this indicates whether rotational values are in degrees (yes) or radians (no).

endheader
time	pelvis_tilt	pelvis_list	pelvis_rotation	pelvis_tx	pelvis_ty	pelvis_tz	hip_flexion_r	hip_adduction_r	hip_rotation_r	knee_angle_r	knee_angle_r_beta	ankle_angle_r	subtalar_angle_r	mtp_angle_r	hip_flexion_l	hip_adduction_l	hip_rotation_l	knee_angle_l	knee_angle_l_beta	ankle_angle_l	subtalar_angle_l	mtp_angle_l	L5_S1_Flex_Ext	L5_S1_Lat_Bending	L5_S1_axial_rotation	L4_L5_Flex_Ext	L4_L5_Lat_Bending	L4_L5_axial_rotation	L3_L4_Flex_Ext	L3_L4_Lat_Bending	L3_L4_axial_rotation	L2_L3_Flex_Ext	L2_L3_Lat_Bending	L2_L3_axial_rotation	L1_L2_Flex_Ext	L1_L2_Lat_Bending	L1_L2_axial_rotation	L1_T12_Flex_Ext	L1_T12_Lat_Bending	L1_T12_axial_rotation	Abs_r3	Abs_r2	Abs_r1	Abs_t1	Abs_t2	neck_flexion	neck_bending	neck_rotation	arm_flex_r	arm_add_r	arm_rot_r	elbow_flex_r	pro_sup_r	wrist_flex_r	wrist_dev_r	arm_flex_l	arm_add_l	arm_rot_l	elbow_flex_l	pro_sup_l	wrist_flex_l	wrist_dev_l
      2.86956522	     -0.25362363	     -8.56919268	    100.35103564	      0.26685086	      0.78457978	      0.70879864	     -6.03618776	      5.60613277	     -6.97548882	      0.17221671	      0.00300575	     11.46118071	    -14.65189391	      0.00000000	     -4.88035955	     -6.16738251	     14.85724236	      0.27446802	      0.00479037	     29.40177511	      0.91963317	      0.00000000	     -0.12104434	      0.67397809	     -1.27703053	     -0.22479144	      0.89639087	     -1.35684494	     -0.19886375	      1.63871034	     -1.35684494	     -0.13834158	      1.63871034	     -1.11740171	     -0.11240177	      1.37437613	     -1.03758730	     -0.06916474	      1.04399207	     -0.95777290	     -0.86460761	      7.62417500	     -7.10246069	      0.00000000	      0.00000000	     21.40431824	     -2.73939496	    -10.10020939	     17.12862383	    -19.76526385	    131.10095547	     17.62394170	      5.29514188	     -1.44176991	      1.33731479	     12.39413163	    -11.95582765	    170.38938565	      1.37758740	     36.68918336	    -11.16911560	     -1.98411271
      2.89130435	     -0.42623312	     -8.64398456	    100.58869786	      0.26657046	      0.78392043	      0.70946912	     -6.00364817	      5.46380127	     -7.64030728	      0.17311010	      0.00302134	     11.41769627	    -14.07283995	      0.00000000	     -4.64257917	     -5.98525812	     12.88282105	      0.27765502	      0.00484599	     30.58569105	      3.21112289	      0.00000000	     -0.13878182	      0.66332861	     -1.35287374	     -0.25773171	      0.88222705	     -1.43742835	     -0.22800464	      1.61281719	     -1.43742835	     -0.15861374	      1.61281719	     -1.18376453	     -0.12887279	      1.35265970	     -1.09920992	     -0.07929993	      1.02749602	     -1.01465531	     -0.99130463	      7.50370592	     -7.52427790	      0.00000000	      0.00000000	     22.38879183	     -2.67254603	    -11.57151671	     15.52964621	    -20.37430661	    133.10729393	     17.36792171	      4.65914425	     -2.03860924	      0.25452463	     10.47387079	    -13.04424145	    164.94894972	      1.66347654	     29.14818639	     -9.82487831	     -3.82131072
      2.91304348	     -0.57281048	     -8.76004155	    100.68374233	      0.26630380	      0.78352777	      0.71016135	     -5.91640787	      5.31139993	     -8.18520168	      0.17508064	      0.00305573	     11.21797642	    -13.55739868	      0.00000000	     -4.37572667	     -5.77942891	     11.94114800	      0.28247113	      0.00493005	     31.25285835	      3.93497029	      0.00000000	     -0.14140031	      0.65450869	     -1.36840125	     -0.26259452	      0.87049655	     -1.45392633	     -0.23230657	      1.59137242	     -1.45392633	     -0.16160642	      1.59137242	     -1.19735109	     -0.13130433	      1.33467411	     -1.11182601	     -0.08079614	      1.01383396	     -1.02630094	     -1.01000829	      7.40393316	     -7.61063722	      0.00000000	      0.00000000	     22.99927045	     -3.25400246	    -13.82879375	     13.83288921	    -20.97303930	    132.59265045	     17.15437040	      4.19981791	     -2.89272439	     -1.46846690	      8.85049965	    -13.87288281	    156.12901524	      2.75633237	     19.07524771	     -7.57567272	     -6.08410587
      2.93478261	     -0.68891748	     -8.81368780	    100.69389238	      0.26614614	      0.78350700	      0.71117024	     -5.85332806	      5.17762149	     -8.44993425	      0.17567870	      0.00306617	     10.96122625	    -13.32274208	      0.00000000	     -4.15495608	     -5.63322446	      8.35306974	      0.29824843	      0.00520542	     32.17334940	      8.34826935	      0.00000000	     -0.15111596	      0.65743393	     -1.41685685	     -0.28063746	      0.87438713	     -1.50541040	     -0.24826842	      1.59848487	     -1.50541040	     -0.17271043	      1.59848487	     -1.23974974	     -0.14032628	      1.34063928	     -1.15119619	     -0.08634766	      1.01836517	     -1.06264263	     -1.07940621	      7.43702416	     -7.88013272	      0.00000000	      0.00000000	     23.63399776	     -3.21696966	    -14.12332519	     12.29689646	    -21.40541238	    129.11293180	     16.67370242	      4.39120445	     -3.37559237	     -2.44012817	      7.42976504	    -14.53814424	    145.87613489	      4.63358492	      7.40297292	     -4.43822702	     -8.26797365
      2.95652174	     -0.82886017	     -8.89265757	    100.71789269	      0.26594685	      0.78353790	      0.71280505	     -5.71129646	      5.00013074	     -8.47548650	      0.17418662	      0.00304013	     11.12007747	    -13.11155819	      0.00000000	     -3.89209404	     -5.43745882	      7.82969087	      0.31089149	      0.00542608	     32.25251502	      8.80329422	      0.00000000	     -0.15876307	      0.64824841	     -1.41269551	     -0.29483890	      0.86217039	     -1.50098898	     -0.26083185	      1.57615119	     -1.50098898	     -0.18145031	      1.57615119	     -1.23610857	     -0.14742739	      1.32190816	     -1.14781510	     -0.09071722	      1.00413679	     -1.05952163	     -1.13402874	      7.33311569	     -7.85698860	      0.00000000	      0.00000000	     23.91465234	     -3.44449162	    -15.09674329	     10.85644368	    -21.65961931	    125.74795976	     16.32152577	      4.56797699	     -4.04800433	     -4.54723086	      6.28273425	    -15.53189790	    128.44995006	      7.73142603	      6.47914206	     -3.27407105	    -10.27740570
      2.97826087	     -0.98853532	     -9.01525380	    100.68007411	      0.26586508	      0.78342438	      0.71476844	     -5.49402369	      4.77676633	     -7.56390631	      0.16901106	      0.00294980	     11.32368627	    -14.00462983	      0.00000000	     -3.59085821	     -5.21521629	      7.34608359	      0.32855091	      0.00573430	     32.23699539	      9.28387052	      0.00000000	     -0.16241465	      0.63089239	     -1.40544876	     -0.30162025	      0.83908688	     -1.49328931	     -0.26683103	      1.53395175	     -1.49328931	     -0.18562371	      1.53395175	     -1.22976767	     -0.15081825	      1.28651576	     -1.14192712	     -0.09280373	      0.97725231	     -1.05408657	     -1.16011162	      7.13678087	     -7.81668438	      0.00000000	      0.00000000	     24.03346603	     -3.42897331	    -15.74476603	      9.97987098	    -21.58627423	    124.92667667	     16.10820860	      4.74549071	     -5.12238553	     -6.42505890	      4.96672462	    -16.41449268	    115.87292941	     10.11648536	      6.83288964	     -2.91678291	    -11.31776979
